<svg width="121" height="47" viewBox="0 0 121 47" fill="none" xmlns="http://www.w3.org/2000/svg">
<rect width="121" height="47" rx="15" fill="white"/>
<path fill-rule="evenodd" clip-rule="evenodd" d="M22.9558 6.97129C22.2981 6.33828 21.2334 6.33828 20.5774 6.97129L6.66974 20.3926C5.35618 21.6603 5.35618 23.7167 6.66974 24.9844L20.6781 38.5047C21.329 39.1312 22.3805 39.1394 23.0398 38.521C23.7143 37.8896 24.213 35.9665 23.5503 35.3254L17.4597 29.2348L10.5571 22.7381C10.5571 22.0454 10.3055 22.9667 10.9631 22.3321L17.4597 16.2415L23.5503 9.74484C24.208 9.11183 23.6134 7.60429 22.9558 6.97129Z" fill="#39422F"/>
<path d="M37.9468 28.521L42.3779 14.2266H46.1011L39.8267 32H37.3486L37.9468 28.521ZM33.8574 14.2266L38.2642 28.521L38.8989 32H36.3965L30.1465 14.2266H33.8574ZM48.3027 25.5303V25.2739C48.3027 24.3055 48.4411 23.4144 48.7178 22.6006C48.9945 21.7786 49.3973 21.0666 49.9263 20.4644C50.4552 19.8621 51.1022 19.3942 51.8672 19.0605C52.6322 18.7188 53.5029 18.5479 54.4795 18.5479C55.4723 18.5479 56.3512 18.7188 57.1162 19.0605C57.8893 19.3942 58.5404 19.8621 59.0693 20.4644C59.5983 21.0666 60.0011 21.7786 60.2778 22.6006C60.5545 23.4144 60.6929 24.3055 60.6929 25.2739V25.5303C60.6929 26.4906 60.5545 27.3817 60.2778 28.2036C60.0011 29.0174 59.5983 29.7295 59.0693 30.3398C58.5404 30.9421 57.8934 31.41 57.1284 31.7437C56.3634 32.0773 55.4886 32.2441 54.5039 32.2441C53.5273 32.2441 52.6525 32.0773 51.8794 31.7437C51.1063 31.41 50.4552 30.9421 49.9263 30.3398C49.3973 29.7295 48.9945 29.0174 48.7178 28.2036C48.4411 27.3817 48.3027 26.4906 48.3027 25.5303ZM51.5254 25.2739V25.5303C51.5254 26.1081 51.5824 26.6493 51.6963 27.1538C51.8102 27.6584 51.9852 28.1019 52.2212 28.4844C52.4572 28.8669 52.7624 29.168 53.1367 29.3877C53.5192 29.5993 53.9749 29.7051 54.5039 29.7051C55.0247 29.7051 55.4723 29.5993 55.8467 29.3877C56.221 29.168 56.5262 28.8669 56.7622 28.4844C57.0063 28.1019 57.1854 27.6584 57.2993 27.1538C57.4132 26.6493 57.4702 26.1081 57.4702 25.5303V25.2739C57.4702 24.7043 57.4132 24.1712 57.2993 23.6748C57.1854 23.1702 57.0063 22.7267 56.7622 22.3442C56.5262 21.9536 56.217 21.6484 55.8345 21.4287C55.4601 21.2008 55.0085 21.0869 54.4795 21.0869C53.9587 21.0869 53.5111 21.2008 53.1367 21.4287C52.7624 21.6484 52.4572 21.9536 52.2212 22.3442C51.9852 22.7267 51.8102 23.1702 51.6963 23.6748C51.5824 24.1712 51.5254 24.7043 51.5254 25.2739ZM68.2046 13.25V32H64.9697V13.25H68.2046ZM79.2808 18.792V21.1113H71.7124V18.792H79.2808ZM73.7388 15.5449H76.9736V28.1914C76.9736 28.582 77.0265 28.8831 77.1323 29.0947C77.2381 29.3063 77.3968 29.4487 77.6084 29.522C77.82 29.5952 78.0723 29.6318 78.3652 29.6318C78.5768 29.6318 78.7721 29.6196 78.9512 29.5952C79.1302 29.5708 79.2808 29.5464 79.4028 29.522L79.415 31.939C79.1465 32.0285 78.8413 32.1017 78.4995 32.1587C78.1659 32.2157 77.7874 32.2441 77.3643 32.2441C76.64 32.2441 76.0052 32.1221 75.46 31.8779C74.9147 31.6257 74.4915 31.2228 74.1904 30.6694C73.8893 30.1079 73.7388 29.3674 73.7388 28.4478V15.5449ZM90.4546 29.1924V23.1011C90.4546 22.6535 90.3773 22.2669 90.2227 21.9414C90.068 21.6159 89.832 21.3636 89.5146 21.1846C89.1973 21.0055 88.7944 20.916 88.3062 20.916C87.8748 20.916 87.4964 20.9893 87.1709 21.1357C86.8535 21.2822 86.6094 21.4897 86.4385 21.7583C86.2676 22.0187 86.1821 22.3198 86.1821 22.6616H82.9473C82.9473 22.1164 83.0775 21.5996 83.3379 21.1113C83.5983 20.6149 83.9686 20.1755 84.4487 19.793C84.937 19.4023 85.5189 19.0972 86.1943 18.8774C86.8779 18.6577 87.6429 18.5479 88.4893 18.5479C89.4902 18.5479 90.3813 18.7188 91.1626 19.0605C91.952 19.3942 92.5705 19.8988 93.0181 20.5742C93.4738 21.2497 93.7017 22.1001 93.7017 23.1255V28.8872C93.7017 29.5464 93.7424 30.112 93.8237 30.584C93.9132 31.0479 94.0435 31.4507 94.2144 31.7925V32H90.9307C90.776 31.6663 90.658 31.2432 90.5767 30.7305C90.4953 30.2096 90.4546 29.6969 90.4546 29.1924ZM90.9062 23.9556L90.9307 25.8721H88.8921C88.3875 25.8721 87.944 25.925 87.5615 26.0308C87.179 26.1284 86.8657 26.2749 86.6216 26.4702C86.3774 26.6574 86.1943 26.8853 86.0723 27.1538C85.9502 27.4142 85.8892 27.7113 85.8892 28.0449C85.8892 28.3704 85.9624 28.6634 86.1089 28.9238C86.2635 29.1842 86.4832 29.3918 86.7681 29.5464C87.061 29.6929 87.4028 29.7661 87.7935 29.7661C88.3631 29.7661 88.8595 29.6522 89.2827 29.4243C89.7059 29.1883 90.0355 28.9035 90.2715 28.5698C90.5075 28.2362 90.6336 27.9188 90.6499 27.6177L91.5776 29.0093C91.4637 29.3429 91.2928 29.6969 91.0649 30.0713C90.8371 30.4456 90.5441 30.7956 90.186 31.1211C89.828 31.4466 89.3966 31.7152 88.8921 31.9268C88.3875 32.1383 87.8016 32.2441 87.1343 32.2441C86.2798 32.2441 85.5148 32.0732 84.8394 31.7314C84.1639 31.3896 83.6309 30.9217 83.2402 30.3276C82.8496 29.7336 82.6543 29.0581 82.6543 28.3013C82.6543 27.6014 82.7845 26.9829 83.0449 26.4458C83.3053 25.9087 83.6919 25.457 84.2046 25.0908C84.7173 24.7165 85.3521 24.4357 86.1089 24.2485C86.8739 24.0532 87.7487 23.9556 88.7334 23.9556H90.9062ZM101.58 21.4897V32H98.3569V18.792H101.409L101.58 21.4897ZM105.596 18.7065L105.547 21.7095C105.368 21.6769 105.164 21.6525 104.937 21.6362C104.717 21.62 104.509 21.6118 104.314 21.6118C103.818 21.6118 103.382 21.681 103.008 21.8193C102.633 21.9495 102.32 22.1408 102.068 22.3931C101.824 22.6453 101.637 22.9546 101.506 23.3208C101.376 23.6789 101.303 24.0858 101.287 24.5415L100.591 24.4561C100.591 23.6178 100.676 22.8407 100.847 22.1245C101.018 21.4084 101.266 20.7817 101.592 20.2446C101.917 19.7075 102.324 19.2925 102.812 18.9995C103.309 18.6984 103.879 18.5479 104.521 18.5479C104.701 18.5479 104.892 18.5641 105.095 18.5967C105.307 18.6211 105.474 18.6577 105.596 18.7065Z" fill="#39422F"/>
</svg>
